<?xml version="1.0" standalone="no"?>
<!DOCTYPE svg PUBLIC "-//W3C//DTD SVG 20010904//EN"
 "http://www.w3.org/TR/2001/REC-SVG-20010904/DTD/svg10.dtd">
<svg version="1.0" xmlns="http://www.w3.org/2000/svg"
 width="16.000000pt" height="16.000000pt" viewBox="0 0 16.000000 16.000000"
 preserveAspectRatio="xMidYMid meet">
<metadata>
Created by potrace 1.11, written by Peter Selinger 2001-2013
</metadata>
<g transform="translate(0.000000,16.000000) scale(0.020000,-0.020000)"
fill="#000000" stroke="none">
<path d="M230 716 c0 -17 68 -106 81 -106 5 0 -9 27 -31 60 -42 62 -50 69 -50
46z"/>
<path d="M378 713 c-3 -5 -3 -18 -2 -30 1 -13 2 -30 3 -40 2 -27 13 -7 16 31
3 33 -8 57 -17 39z"/>
<path d="M531 680 c-40 -55 -64 -100 -54 -100 14 1 95 119 91 132 -3 7 -19 -8
-37 -32z"/>
<path d="M180 592 c0 -9 29 -26 73 -42 37 -13 34 -5 -10 25 -38 25 -63 32 -63
17z"/>
<path d="M563 569 c-49 -31 -40 -41 17 -17 27 11 47 24 44 29 -8 14 -26 10
-61 -12z"/>
<path d="M344 563 c-39 -7 -103 -71 -114 -114 -20 -72 9 -156 65 -193 48 -32
49 -7 0 41 -86 83 -36 227 83 237 128 11 191 -159 93 -248 -22 -20 -28 -46
-12 -46 18 0 70 61 81 96 25 74 -9 167 -76 211 -25 16 -79 23 -120 16z"/>
<path d="M140 511 c0 -5 20 -11 45 -13 51 -4 60 6 14 16 -43 8 -59 8 -59 -3z"/>
<path d="M588 511 c-72 -10 -69 -21 7 -21 59 0 66 2 55 15 -7 8 -13 14 -14 14
0 -1 -22 -5 -48 -8z"/>
<path d="M344 500 c-66 -25 -84 -117 -35 -172 25 -28 36 -33 73 -33 106 0 150
117 70 188 -23 21 -76 29 -108 17z m66 -56 c0 -20 4 -24 19 -19 30 9 36 -34 5
-45 -15 -6 -22 -15 -18 -25 4 -9 0 -15 -9 -15 -9 0 -22 -3 -30 -6 -12 -4 -14
0 -10 15 4 16 1 21 -15 21 -20 0 -36 25 -26 41 3 5 12 9 20 9 8 0 14 9 14 19
0 17 12 25 43 30 4 0 7 -11 7 -25z"/>
<path d="M327 222 c-66 -4 -62 -31 8 -48 l50 -12 -48 -1 c-75 -2 -78 -50 -2
-51 45 0 75 -11 75 -26 0 -16 19 -18 54 -4 32 12 25 35 -12 46 l-27 7 29 6
c36 7 46 30 17 38 -27 7 -27 19 1 26 12 4 20 8 18 11 -7 6 -108 11 -163 8z"/>
</g>
</svg>
